<?xml version="1.0" encoding="UTF-8" standalone="no"?>
<!-- Created with Inkscape (http://www.inkscape.org/) -->

<svg
   width="96"
   height="1792"
   viewBox="0 0 25.4 474.13334"
   version="1.1"
   id="svg1"
   inkscape:version="1.3.2 (091e20ef0f, 2023-11-25, custom)"
   sodipodi:docname="numbers.svg"
   inkscape:export-filename="staging/numbers-big.png"
   inkscape:export-xdpi="384"
   inkscape:export-ydpi="384"
   xmlns:inkscape="http://www.inkscape.org/namespaces/inkscape"
   xmlns:sodipodi="http://sodipodi.sourceforge.net/DTD/sodipodi-0.dtd"
   xmlns="http://www.w3.org/2000/svg"
   xmlns:svg="http://www.w3.org/2000/svg">
  <sodipodi:namedview
     id="namedview1"
     pagecolor="#000000"
     bordercolor="#000000"
     borderopacity="0.25"
     inkscape:showpageshadow="2"
     inkscape:pageopacity="0.0"
     inkscape:pagecheckerboard="0"
     inkscape:deskcolor="#d1d1d1"
     inkscape:document-units="px"
     inkscape:zoom="5.12"
     inkscape:cx="44.824219"
     inkscape:cy="1643.75"
     inkscape:window-width="3840"
     inkscape:window-height="2056"
     inkscape:window-x="1920"
     inkscape:window-y="0"
     inkscape:window-maximized="1"
     inkscape:current-layer="layer1"
     inkscape:export-bgcolor="#ffffff00"
     showgrid="true">
    <inkscape:grid
       id="grid1"
       units="px"
       originx="0"
       originy="0"
       spacingx="4.2333334"
       spacingy="4.2333334"
       empcolor="#0099e5"
       empopacity="0.30196078"
       color="#0099e5"
       opacity="0.14901961"
       empspacing="8"
       dotted="false"
       gridanglex="30"
       gridanglez="30"
       visible="true" />
  </sodipodi:namedview>
  <defs
     id="defs1">
    <marker
       style="overflow:visible"
       id="Tail"
       refX="0"
       refY="0"
       orient="auto-start-reverse"
       inkscape:stockid="Arrow tail"
       markerWidth="1"
       markerHeight="1"
       viewBox="0 0 1 1"
       inkscape:isstock="true"
       inkscape:collect="always"
       preserveAspectRatio="xMidYMid"
       markerUnits="userSpaceOnUse">
      <path
         style="fill:none;fill-rule:evenodd;stroke:context-stroke;stroke-width:1;stroke-linecap:round"
         d="m -3.0000001,-3 -3.1102256,3 3.1102256,3 M -4.0952644e-8,-3 -3.0000001,0 -4.0952644e-8,3 M 3,3 -4.0952644e-8,0 3,-3"
         sodipodi:nodetypes="ccccccccc"
         id="path15" />
    </marker>
    <marker
       style="overflow:visible"
       id="ConcaveTriangle"
       refX="0"
       refY="0"
       orient="auto-start-reverse"
       inkscape:stockid="Concave triangle arrow"
       markerWidth="1"
       markerHeight="1"
       viewBox="0 0 1 1"
       inkscape:isstock="true"
       inkscape:collect="always"
       preserveAspectRatio="xMidYMid"
       markerUnits="userSpaceOnUse">
      <path
         transform="scale(0.7)"
         d="M -2,-4 9,0 -2,4 c 2,-2.33 2,-5.66 0,-8 z"
         style="fill:context-stroke;fill-rule:evenodd;stroke:none"
         id="path7" />
    </marker>
  </defs>
  <g
     inkscape:label="Layer 1"
     inkscape:groupmode="layer"
     id="layer1">
    <text
       xml:space="preserve"
       style="font-size:29.6333px;line-height:33.8667px;font-family:'Hylia Serif Beta';-inkscape-font-specification:'Hylia Serif Beta';text-align:center;text-anchor:middle;fill:#ffffff;stroke-width:1;stroke-linejoin:round"
       x="12.862984"
       y="29.110544"
       id="text1"><tspan
         sodipodi:role="line"
         id="tspan1"
         style="font-size:29.6333px;line-height:33.8667px;stroke-width:1"
         x="12.862984"
         y="29.110544">0</tspan><tspan
         sodipodi:role="line"
         style="font-size:29.6333px;line-height:33.8667px;stroke-width:1"
         x="12.862984"
         y="62.977242"
         id="tspan2">1</tspan><tspan
         sodipodi:role="line"
         style="font-size:29.6333px;line-height:33.8667px;stroke-width:1"
         x="12.862984"
         y="96.843941"
         id="tspan3">2</tspan><tspan
         sodipodi:role="line"
         style="font-size:29.6333px;line-height:33.8667px;stroke-width:1"
         x="12.862984"
         y="130.71063"
         id="tspan4">3</tspan><tspan
         sodipodi:role="line"
         style="font-size:29.6333px;line-height:33.8667px;stroke-width:1"
         x="12.862984"
         y="164.57733"
         id="tspan5">4</tspan><tspan
         sodipodi:role="line"
         style="font-size:29.6333px;line-height:33.8667px;stroke-width:1"
         x="12.862984"
         y="198.44403"
         id="tspan6">5</tspan><tspan
         sodipodi:role="line"
         style="font-size:29.6333px;line-height:33.8667px;stroke-width:1"
         x="12.862984"
         y="232.31073"
         id="tspan7">6</tspan><tspan
         sodipodi:role="line"
         style="font-size:29.6333px;line-height:33.8667px;stroke-width:1"
         x="12.862984"
         y="266.17743"
         id="tspan8">7</tspan><tspan
         sodipodi:role="line"
         style="font-size:29.6333px;line-height:33.8667px;stroke-width:1"
         x="12.862984"
         y="300.04413"
         id="tspan9">8</tspan><tspan
         sodipodi:role="line"
         style="font-size:29.6333px;line-height:33.8667px;stroke-width:1"
         x="12.862984"
         y="333.91083"
         id="tspan10">9</tspan></text>
    <path
       id="path10"
       style="fill:#ffffff;stroke-width:1;stroke-linejoin:round"
       d="M 12.7,347.6749 A 8.4666691,8.4666691 0 0 0 4.2333325,356.14157 8.4666691,8.4666691 0 0 0 12.7,364.60823 8.4666691,8.4666691 0 0 0 21.166668,356.14157 8.4666691,8.4666691 0 0 0 12.7,347.6749 Z m 0,2.82223 a 5.6444455,5.6444455 0 0 1 5.644445,5.64444 A 5.6444455,5.6444455 0 0 1 12.7,361.78601 5.6444455,5.6444455 0 0 1 7.0555551,356.14157 5.6444455,5.6444455 0 0 1 12.7,350.49713 Z" />
    <circle
       style="fill:#ffffff;stroke-width:1;stroke-linejoin:round"
       id="path11"
       cx="12.700001"
       cy="356.1416"
       r="2.8222227" />
    <path
       id="path12"
       style="fill:#ffffff;stroke-width:1;stroke-linejoin:round"
       d="m 12.699999,381.00002 a 8.4666694,8.4666694 0 0 0 -8.4666684,8.46666 8.4666694,8.4666694 0 0 0 8.4666684,8.46667 8.4666694,8.4666694 0 0 0 8.466669,-8.46667 8.4666694,8.4666694 0 0 0 -8.466669,-8.46666 z m 0,1.41111 a 7.0555579,7.0555579 0 0 1 7.055557,7.05555 7.0555579,7.0555579 0 0 1 -7.055557,7.05556 7.0555579,7.0555579 0 0 1 -7.0555571,-7.05556 7.0555579,7.0555579 0 0 1 7.0555571,-7.05555 z" />
    <path
       style="fill:none;stroke:#ffffff;stroke-width:1.58750001;stroke-linecap:butt;stroke-linejoin:round;stroke-dasharray:none;stroke-opacity:1"
       d="M 9.8777765,383.82224 12.7,389.46669 l 2.822222,-2.82223"
       id="path13"
       sodipodi:nodetypes="ccc" />
    <path
       style="fill:none;stroke:#ffffff;stroke-width:2.11667;stroke-linecap:square;stroke-linejoin:round;stroke-dasharray:none;stroke-opacity:1;marker-start:url(#Tail);marker-end:url(#ConcaveTriangle)"
       d="M 8.4666672,431.80002 18.454694,415.51781"
       id="path14"
       sodipodi:nodetypes="cc" />
    <path
       style="fill:none;stroke:#ffffff;stroke-width:0.52916667;stroke-linecap:square;stroke-linejoin:round;stroke-dasharray:none"
       d="m 12.700001,448.73335 v 16.93333"
       id="path1" />
    <path
       style="fill:none;stroke:#ffffff;stroke-width:0.52916667;stroke-linecap:square;stroke-linejoin:round;stroke-dasharray:none"
       d="M 4.2333345,457.20002 H 21.166668"
       id="path2" />
    <circle
       style="fill:none;stroke:#ffffff;stroke-width:0.52916667;stroke-linecap:square;stroke-linejoin:round;stroke-dasharray:none"
       id="path3"
       cx="12.700001"
       cy="457.20001"
       r="5.644444" />
  </g>
</svg>
