<?xml version="1.0" encoding="UTF-8" standalone="no"?>
<!-- Created with Inkscape (http://www.inkscape.org/) -->

<svg
   width="256"
   height="768"
   viewBox="0 0 67.733332 203.19999"
   version="1.1"
   id="svg1"
   inkscape:version="1.3.2 (091e20ef0f, 2023-11-25, custom)"
   sodipodi:docname="pot.svg"
   inkscape:export-filename="staging/pot-big.png"
   inkscape:export-xdpi="192"
   inkscape:export-ydpi="192"
   xmlns:inkscape="http://www.inkscape.org/namespaces/inkscape"
   xmlns:sodipodi="http://sodipodi.sourceforge.net/DTD/sodipodi-0.dtd"
   xmlns="http://www.w3.org/2000/svg"
   xmlns:svg="http://www.w3.org/2000/svg">
  <sodipodi:namedview
     id="namedview1"
     pagecolor="#ffffff"
     bordercolor="#000000"
     borderopacity="0.25"
     inkscape:showpageshadow="2"
     inkscape:pageopacity="0.0"
     inkscape:pagecheckerboard="0"
     inkscape:deskcolor="#d1d1d1"
     inkscape:document-units="px"
     showgrid="true"
     showguides="true"
     guidecolor="#ff0d6f"
     guideopacity="0.6"
     inkscape:zoom="4.3847656"
     inkscape:cx="101.14566"
     inkscape:cy="267.97327"
     inkscape:window-width="3840"
     inkscape:window-height="2056"
     inkscape:window-x="1920"
     inkscape:window-y="0"
     inkscape:window-maximized="1"
     inkscape:current-layer="layer1">
    <inkscape:grid
       id="grid1"
       units="px"
       originx="0"
       originy="0"
       spacingx="4.2333332"
       spacingy="4.2333332"
       empcolor="#0099e5"
       empopacity="0.30196078"
       color="#0099e5"
       opacity="0.14901961"
       empspacing="4"
       dotted="false"
       gridanglex="30"
       gridanglez="30"
       visible="true" />
    <sodipodi:guide
       position="-8.4666661,177.79999"
       orientation="0,-1"
       id="guide1"
       inkscape:locked="false" />
    <sodipodi:guide
       position="-7.5266102,101.6"
       orientation="0,-1"
       id="guide2"
       inkscape:locked="false" />
    <sodipodi:guide
       position="-8.4666661,25.4"
       orientation="0,-1"
       id="guide3"
       inkscape:locked="false" />
    <sodipodi:guide
       position="-8.4666661,114.3"
       orientation="0,-1"
       id="guide4"
       inkscape:locked="false" />
  </sodipodi:namedview>
  <defs
     id="defs1" />
  <g
     inkscape:label="Layer 1"
     inkscape:groupmode="layer"
     id="layer1">
    <rect
       style="fill:#00ff00;fill-opacity:1;fill-rule:nonzero;stroke:none;stroke-width:0.529167;stroke-linecap:square;stroke-linejoin:round"
       id="rect38"
       width="67.73333"
       height="101.59999"
       x="0"
       y="0" />
    <path
       id="path4"
       style="fill:#ff0000;fill-opacity:1;fill-rule:nonzero;stroke:none;stroke-width:0.529167;stroke-linecap:square;stroke-linejoin:round"
       d="M 0 0 L 5.6446165 6.3499998 L 0 12.7 L 5.6446165 19.049999 L 0 25.399999 L 0 29.633332 L 12.7 29.633332 L 0 42.333332 L 0 55.033331 L 25.399999 29.633332 L 42.333332 29.633332 L 67.733331 55.033331 L 67.733331 42.333332 L 55.033331 29.633332 L 67.733331 29.633332 L 67.733331 25.399999 L 62.088714 25.399999 L 67.733331 19.049999 L 62.088714 12.7 L 67.733331 6.3499998 L 62.088714 0 L 56.444615 0 L 62.088714 6.3499998 L 56.444615 12.7 L 62.088714 19.049999 L 56.444615 25.399999 L 50.799998 25.399999 L 56.444615 19.049999 L 50.799998 12.7 L 56.444615 6.3499998 L 50.799998 0 L 45.155382 0 L 50.799998 6.3499998 L 45.155382 12.7 L 50.799998 19.049999 L 45.155382 25.399999 L 39.511282 25.399999 L 45.155382 19.049999 L 39.511282 12.7 L 45.155382 6.3499998 L 39.511282 0 L 33.866665 0 L 39.511282 6.3499998 L 33.866665 12.7 L 39.511282 19.049999 L 33.866665 25.399999 L 28.222049 25.399999 L 33.866665 19.049999 L 28.222049 12.7 L 33.866665 6.3499998 L 28.222049 0 L 22.577949 0 L 28.222049 6.3499998 L 22.577949 12.7 L 28.222049 19.049999 L 22.577949 25.399999 L 16.933333 25.399999 L 22.577949 19.049999 L 16.933333 12.7 L 22.577949 6.3499998 L 16.933333 0 L 11.288716 0 L 16.933333 6.3499998 L 11.288716 12.7 L 16.933333 19.049999 L 11.288716 25.399999 L 5.6446165 25.399999 L 11.288716 19.049999 L 5.6446165 12.7 L 11.288716 6.3499998 L 5.6446165 0 L 0 0 z M 33.866665 33.866665 L 8.4666664 59.266665 L 33.866665 84.666664 L 59.266665 59.266665 L 33.866665 33.866665 z M 33.866665 42.333332 L 50.799998 59.266665 L 33.866665 76.199997 L 16.933333 59.266665 L 33.866665 42.333332 z M 33.866665 46.566665 L 21.166666 59.266665 L 33.866665 71.966664 L 46.566665 59.266665 L 33.866665 46.566665 z M 33.866665 50.799998 L 42.333332 59.266665 L 33.866665 67.733331 L 25.399999 59.266665 L 33.866665 50.799998 z M 33.866665 55.033331 L 29.633332 59.266665 L 33.866665 63.499998 L 38.099999 59.266665 L 33.866665 55.033331 z M 0 63.499998 L 0 76.199997 L 8.4666664 84.666664 L 21.166666 84.666664 L 0 63.499998 z M 67.733331 63.499998 L 46.566665 84.666664 L 59.266665 84.666664 L 67.733331 76.199997 L 67.733331 63.499998 z " />
    <rect
       style="fill:#0000ff;fill-opacity:1;fill-rule:nonzero;stroke:none;stroke-width:0.529167;stroke-linecap:square;stroke-linejoin:round"
       id="rect39"
       width="67.733322"
       height="76.199997"
       x="0"
       y="101.6" />
    <rect
       style="fill:#000000;fill-opacity:1;fill-rule:nonzero;stroke:none;stroke-width:0.529167;stroke-linecap:square;stroke-linejoin:round"
       id="rect40"
       width="67.73333"
       height="25.400005"
       x="0"
       y="177.79999" />
  </g>
</svg>
