<?xml version="1.0" encoding="UTF-8" standalone="no"?>
<!-- Created with Inkscape (http://www.inkscape.org/) -->

<svg
   width="119.99992mm"
   height="119.99992mm"
   viewBox="0 0 119.99992 119.99992"
   version="1.1"
   id="svg1"
   inkscape:version="1.3.2 (091e20ef0f, 2023-11-25, custom)"
   sodipodi:docname="rail-path.svg"
   xml:space="preserve"
   xmlns:inkscape="http://www.inkscape.org/namespaces/inkscape"
   xmlns:sodipodi="http://sodipodi.sourceforge.net/DTD/sodipodi-0.dtd"
   xmlns:xlink="http://www.w3.org/1999/xlink"
   xmlns="http://www.w3.org/2000/svg"
   xmlns:svg="http://www.w3.org/2000/svg"
   xmlns:inkstitch="http://inkstitch.org/namespace"><sodipodi:namedview
     id="namedview1"
     pagecolor="#ffffff"
     bordercolor="#000000"
     borderopacity="0.25"
     inkscape:showpageshadow="2"
     inkscape:pageopacity="0.0"
     inkscape:pagecheckerboard="0"
     inkscape:deskcolor="#d1d1d1"
     inkscape:document-units="mm"
     inkscape:zoom="6.56"
     inkscape:cx="174.31402"
     inkscape:cy="218.59756"
     inkscape:window-width="3840"
     inkscape:window-height="2056"
     inkscape:window-x="1920"
     inkscape:window-y="0"
     inkscape:window-maximized="1"
     inkscape:current-layer="layer1" /><metadata
     id="metadata1"><inkstitch:min_stitch_len_mm>0.0</inkstitch:min_stitch_len_mm><inkstitch:collapse_len_mm>3.0</inkstitch:collapse_len_mm><inkstitch:inkstitch_svg_version>1</inkstitch:inkstitch_svg_version></metadata><defs
     id="defs1"><inkscape:path-effect
   effect="spiro"
   id="path-effect2"
   is_visible="true"
   lpeversion="1" /><inkscape:path-effect
   effect="spiro"
   id="path-effect1"
   is_visible="true"
   lpeversion="1" /><symbol
   style="display:inline"
   id="inkstitch_origin">
      <title
   id="inkstitch_title9427-67">Origin for exported embroidery files</title>
      <path
   inkscape:connector-curvature="0"
   id="inkstitch_circle13166-5"
   d="m 9.220113,0.07922893 c -1.9e-6,5.10672897 -4.1398241,9.24654997 -9.24655297,9.24654997 -5.10672933,0 -9.24655213,-4.139821 -9.24655403,-9.24654997 1e-7,-2.45233803 0.9741879,-4.80423503 2.7082531,-6.53830103 1.7340653,-1.734065 4.0859624,-2.708252 6.53830093,-2.708252 5.10673007,0 9.24655277,4.139823 9.24655297,9.24655303 0,0 0,0 0,0"
   style="opacity:1;vector-effect:none;fill:#fafafa;fill-opacity:1;fill-rule:evenodd;stroke:#003399;stroke-width:1.065;stroke-linecap:round;stroke-linejoin:miter;stroke-miterlimit:4;stroke-dasharray:3.195, 3.195;stroke-dashoffset:0;stroke-opacity:1" />
      <g
   id="g27211">
        <path
   inkscape:connector-curvature="0"
   style="color:#000000;font-style:normal;font-variant:normal;font-weight:normal;font-stretch:normal;font-size:medium;line-height:normal;font-family:sans-serif;font-variant-ligatures:normal;font-variant-position:normal;font-variant-caps:normal;font-variant-numeric:normal;font-variant-alternates:normal;font-feature-settings:normal;text-indent:0;text-align:start;text-decoration:none;text-decoration-line:none;text-decoration-style:solid;text-decoration-color:#000000;letter-spacing:normal;word-spacing:normal;text-transform:none;writing-mode:lr-tb;direction:ltr;text-orientation:mixed;dominant-baseline:auto;baseline-shift:baseline;text-anchor:start;white-space:normal;shape-padding:0;clip-rule:nonzero;display:inline;overflow:visible;visibility:visible;opacity:1;isolation:auto;mix-blend-mode:normal;color-interpolation:sRGB;color-interpolation-filters:linearRGB;solid-color:#000000;solid-opacity:1;vector-effect:none;fill:#000000;fill-opacity:1;fill-rule:nonzero;stroke:none;stroke-width:1.95;stroke-linecap:butt;stroke-linejoin:miter;stroke-miterlimit:4;stroke-dasharray:none;stroke-dashoffset:0;stroke-opacity:1;paint-order:fill markers stroke;color-rendering:auto;image-rendering:auto;shape-rendering:auto;text-rendering:auto;enable-background:accumulate"
   d="m -3.8183594,-6.3222656 c 0,0 -1.9511718,3.375 -1.9511718,3.375 0,0 0.9746093,0 0.9746093,0 0,0 0,2.33984372 0,2.33984372 0,0 -0.703125,0 -0.703125,0 0,0 0,0.6484375 0,0.6484375 0,0 0.703125,0 0.703125,0 0,0 0,1.60156248 0,1.60156248 0,0 -0.703125,0 -0.703125,0 0,0 0,0.6484375 0,0.6484375 0,0 0.703125,0 0.703125,0 0,0 0,2.9003906 0,2.9003906 0,0 3.7675781,0 3.7675781,0 0,0 0,0.7265626 0,0.7265626 0,0 0.65039068,0 0.65039068,0 0,0 0,-0.7265626 0,-0.7265626 0,0 1.59960932,0 1.59960932,0 0,0 0,0.7265626 0,0.7265626 0,0 0.6503907,0 0.6503907,0 0,0 0,-0.7265626 0,-0.7265626 0,0 1.8242187,0 1.8242187,0 0,0 0,0.9746094 0,0.9746094 0,0 3.3730469,-1.9492187 3.3730469,-1.9492187 0,0 -3.3730469,-1.9492188 -3.3730469,-1.9492188 0,0 0,0.9746094 0,0.9746094 0,0 -1.8242187,0 -1.8242187,0 0,0 0,-0.7265625 0,-0.7265625 0,0 -0.6503907,0 -0.6503907,0 0,0 0,0.7265625 0,0.7265625 0,0 -1.59960932,0 -1.59960932,0 0,0 0,-0.7265625 0,-0.7265625 0,0 -0.65039068,0 -0.65039068,0 0,0 0,0.7265625 0,0.7265625 0,0 -1.8164062,0 -1.8164062,0 0,0 0,-0.9511719 0,-0.9511719 0,0 0.75,0 0.75,0 0,0 0,-0.6484375 0,-0.6484375 0,0 -0.75,0 -0.75,0 0,0 0,-1.60156248 0,-1.60156248 0,0 0.75,0 0.75,0 0,0 0,-0.6484375 0,-0.6484375 0,0 -0.75,0 -0.75,0 0,0 0,-2.33984372 0,-2.33984372 0,0 0.9746094,0 0.9746094,0 0,0 -1.9492188,-3.375 -1.9492188,-3.375"
   id="inkstitch_rect5371-2-3" />
      </g>
      <path
   inkscape:connector-curvature="0"
   id="path16421-8"
   d="m 0.57260898,-3.1777344 c -0.071734,-1.477e-4 -0.1459261,0.023966 -0.203125,0.070312 -0.001979,0.00126 -0.003933,0.00257 -0.00586,0.00391 -0.1089887,0.095935 -0.2036022,0.1946157 -0.2851562,0.2988281 -0.080937,0.103424 -0.1496356,0.2111305 -0.203125,0.3242187 -0.053925,0.1140093 -0.092467,0.2338978 -0.1171875,0.3554688 -0.024626,0.1211014 -0.037109,0.2469313 -0.037109,0.3769531 0,0 0,0.00391 0,0.00391 -1e-7,0.1308008 0.012438,0.2575792 0.037109,0.3789062 0.024772,0.1208588 0.063476,0.2399564 0.1171875,0.3535156 0.053489,0.1130885 0.1221879,0.2207947 0.203125,0.3242188 0.079746,0.1019017 0.1731573,0.2012789 0.28125,0.296875 0.057512,0.054401 0.1230095,0.072299 0.1816406,0.076172 0.058631,0.00387 0.1145272,-0.00646 0.171875,-0.037109 0.057348,-0.030654 0.123751,-0.098677 0.1328125,-0.1914063 0.00897,-0.091756 -0.035792,-0.1679217 -0.087891,-0.2226562 0,0 -0.00195,-0.00196 -0.00195,-0.00196 -0.042833,-0.045359 -0.0821932,-0.091351 -0.1171901,-0.1367188 -0.0646652,-0.085061 -0.1178725,-0.1718145 -0.1582031,-0.2597656 -0.0404721,-0.08826 -0.0692154,-0.1791742 -0.0898438,-0.2753906 0,0 0,-0.00195 0,-0.00195 -0.019368,-0.095905 -0.029297,-0.1972936 -0.029297,-0.3046876 0,-0.1073939 0.00993,-0.2087828 0.029297,-0.3046874 0,0 0,-0.00195 0,-0.00195 0.020577,-0.095962 0.049404,-0.1859964 0.089844,-0.2734375 0.040331,-0.087951 0.093538,-0.1747036 0.1582031,-0.2597656 0.034608,-0.045272 0.072382,-0.090974 0.1132813,-0.1347656 0.1100322,-0.1004922 0.106643,-0.2892446 0.00977,-0.3847657 -0.048439,-0.04776 -0.1177191,-0.072118 -0.1894532,-0.072266 0,0 -4.1e-6,-6.4e-6 -4.1e-6,-6.4e-6 m 5.98828132,0 c -0.071651,7.8e-5 -0.1408014,0.023039 -0.1894531,0.070312 -0.097304,0.094548 -0.1026997,0.2857883 0.00781,0.3867188 0.042446,0.045212 0.082141,0.091474 0.1152343,0.1347656 0.063728,0.083829 0.1151348,0.1701035 0.15625,0.2597656 0.041495,0.089724 0.071628,0.1807109 0.091797,0.2753907 0.019368,0.095905 0.029297,0.1972939 0.029297,0.3046874 0,0.1080768 -0.00969,0.210199 -0.029297,0.3066407 -0.020235,0.094281 -0.050544,0.1854295 -0.091797,0.2753906 -0.041114,0.089661 -0.092522,0.1759365 -0.15625,0.2597656 -0.035531,0.046061 -0.07555,0.092638 -0.1191406,0.1386719 -0.052099,0.054735 -0.096857,0.1309001 -0.087891,0.2226562 0.00906,0.092729 0.075465,0.1607525 0.1328125,0.1914063 0.057348,0.030654 0.1132438,0.040982 0.171875,0.037109 0.058631,-0.00387 0.1241291,-0.021771 0.1816406,-0.076172 0.1080928,-0.095596 0.2015041,-0.1949734 0.2812503,-0.296875 0.08094,-0.1034241 0.149635,-0.2111302 0.203125,-0.3242188 0.05371,-0.1135599 0.09242,-0.2326573 0.117187,-0.3535156 0.02467,-0.1213269 0.03711,-0.2481053 0.03711,-0.3789062 0,0 0,-0.00391 0,-0.00391 0,-0.1300217 -0.01248,-0.2558514 -0.03711,-0.3769531 -0.02472,-0.1215662 -0.06326,-0.2414547 -0.117184,-0.3554641 -0.05349,-0.1130875 -0.122188,-0.2207943 -0.203125,-0.3242187 -0.081554,-0.1042124 -0.176168,-0.2028933 -0.2851566,-0.2988281 -0.00193,-0.00134 -0.00388,-0.00265 -0.00586,-0.00391 -0.05737,-0.046485 -0.1314738,-0.07039 -0.203125,-0.070312 0,0 6e-7,3.2e-6 6e-7,3.2e-6 m -4.7011719,0.3515625 c -0.1283255,0 -0.2496161,0.018417 -0.3613281,0.052734 -0.1205672,0.03623 -0.231977,0.1029821 -0.3222656,0.1953125 -0.092899,0.095 -0.158771,0.2147859 -0.20507822,0.3535156 -3.58e-6,6.5e-4 -3.58e-6,0.0013 0,0.00195 -0.047143,0.1440141 -0.068359,0.3107544 -0.068359,0.5058593 0,0.187956 0.021404,0.3526519 0.068359,0.4960938 -3.58e-6,6.5e-4 -3.58e-6,0.0013 0,0.00195 0.046821,0.138265 0.11525652,0.2561727 0.20312502,0.3496094 6.449e-4,6.5506e-4 0.00129,0.001305 0.00195,0.00195 0.086822,0.090925 0.1925294,0.1619069 0.3144532,0.203125 0.113825,0.038479 0.2343925,0.056641 0.359375,0.056641 0.1240896,-10e-8 0.2463111,-0.01819 0.3613281,-0.056641 0.1227637,-0.04104 0.2290582,-0.1116491 0.3164063,-0.203125 0.090879,-0.094856 0.160379,-0.2144584 0.2070312,-0.3515625 0,0 0,-0.00195 0,-0.00195 0.04963,-0.1446454 0.070315,-0.3097522 0.070315,-0.4960938 0,-0.1944243 -0.019335,-0.3619907 -0.068359,-0.5078125 C 2.6898173,-2.3649775 2.6213826,-2.484308 2.5296403,-2.578125 2.4412783,-2.668486 2.3312446,-2.7348378 2.2112809,-2.7714844 c -0.1098451,-0.034511 -0.2276775,-0.054687 -0.3515625,-0.054687 0,0 0,0 0,0 m 3.40625,0 c -0.1283255,0 -0.2509177,0.018217 -0.3632812,0.052734 -0.1211815,0.036426 -0.2311771,0.1041614 -0.3203125,0.1953125 -0.0929,0.095001 -0.1587709,0.2147864 -0.2050781,0.3535156 -3.6e-6,6.5e-4 -3.6e-6,0.0013 0,0.00195 -0.047144,0.144015 -0.068359,0.3107548 -0.068359,0.5058593 0,0.1879556 0.021403,0.352651 0.068359,0.4960938 -3.6e-6,6.5e-4 -3.6e-6,0.0013 0,0.00195 0.04626,0.13661 0.1121532,0.2549502 0.2011718,0.3496094 6.449e-4,6.5506e-4 0.00129,0.001305 0.00195,0.00195 0.087964,0.092121 0.195188,0.1621455 0.3164062,0.203125 0.1138248,0.038479 0.2343924,0.056641 0.359375,0.056641 0.1240899,0 0.2450506,-0.018421 0.359375,-0.056641 0.1227636,-0.04104 0.2290582,-0.1116493 0.3164062,-0.203125 0.090879,-0.094856 0.160379,-0.2144583 0.2070313,-0.3515625 0,0 0,-0.00195 0,-0.00195 0.04909,-0.1430335 0.072266,-0.3084325 0.072266,-0.4960938 0,-0.1956861 -0.021841,-0.3636373 -0.070312,-0.5078125 C 6.0946613,-2.3633389 6.02879,-2.4831245 5.9358903,-2.578125 5.8475279,-2.6684863 5.7374948,-2.7348378 5.6175309,-2.7714844 c -0.1098451,-0.034511 -0.2276775,-0.054687 -0.3515625,-0.054687 0,0 0,0 0,0 m -3.40625,0.5429688 c 0.055432,0 0.1009954,0.00891 0.1367188,0.023437 6.5e-4,3.6e-6 0.0013,3.6e-6 0.00195,0 0.02557,0.00985 0.045222,0.025496 0.070312,0.060547 6.5e-4,3.6e-6 0.0013,3.6e-6 0.00195,0 0.022095,0.030406 0.047135,0.083247 0.064453,0.1621094 -3.6e-6,6.5e-4 -3.6e-6,0.0013 0,0.00195 0.016958,0.076535 0.025391,0.1828146 0.025391,0.3183593 0,0.1285689 -0.010757,0.2344819 -0.029297,0.3105469 -0.0184,0.079083 -0.042145,0.132477 -0.066406,0.1660156 -6.5e-4,-3.6e-6 -0.0013,-3.6e-6 -0.00195,0 -0.02365,0.033039 -0.047699,0.051825 -0.076172,0.064453 -0.036523,0.01511 -0.077371,0.023437 -0.1328125,0.023437 -0.058078,0 -0.1013487,-0.0088 -0.1367188,-0.023437 -0.02914,-0.012911 -0.055461,-0.032877 -0.080078,-0.066406 -0.022766,-0.033187 -0.04635,-0.085255 -0.064453,-0.1621094 0,0 0,-0.00195 0,-0.00195 -0.016808,-0.07661 -0.025391,-0.1812575 -0.025391,-0.3105469 0,-0.1346383 0.00848,-0.2420437 0.025391,-0.3183593 3.6e-6,-6.5e-4 3.6e-6,-0.0013 0,-0.00195 0.017622,-0.080248 0.04212,-0.1316854 0.0625,-0.1601562 0.023285,-0.031716 0.046461,-0.05007 0.078125,-0.0625 0.038881,-0.015263 0.085765,-0.023437 0.1464844,-0.023437 0,0 3.1e-6,-3.4e-6 3.1e-6,-3.4e-6 m 3.40625,0 c 0.055432,0 0.097781,0.0084 0.1347656,0.023437 6.5e-4,3.6e-6 0.0013,3.6e-6 0.00195,0 0.02677,0.010311 0.048719,0.027653 0.072266,0.060547 6.5e-4,3.6e-6 0.0013,3.6e-6 0.00195,0 0.022095,0.030406 0.047135,0.083247 0.064453,0.1621094 -3.6e-6,6.5e-4 -3.6e-6,0.0013 0,0.00195 0.016958,0.076535 0.025391,0.1828146 0.025391,0.3183593 1e-6,0.1285671 -0.010756,0.2344806 -0.029297,0.3105469 -0.0184,0.079083 -0.042145,0.132477 -0.066406,0.1660156 -6.5e-4,-3.6e-6 -0.0013,-3.6e-6 -0.00195,0 -0.02365,0.033039 -0.047699,0.051825 -0.076172,0.064453 -0.036523,0.01511 -0.077371,0.023437 -0.1328126,0.023437 -0.058078,0 -0.1045526,-0.00932 -0.1386718,-0.023437 -0.027839,-0.012332 -0.052016,-0.030845 -0.078125,-0.066406 -0.024212,-0.035177 -0.048775,-0.087353 -0.066406,-0.1621094 0,0 0,-0.00195 0,-0.00195 -0.016808,-0.07661 -0.025391,-0.1812576 -0.025391,-0.3105469 0,-0.1346383 0.00848,-0.2420434 0.025391,-0.3183593 3.6e-6,-6.5e-4 3.6e-6,-0.0013 0,-0.00195 0.017138,-0.078042 0.042536,-0.1295963 0.064453,-0.1601562 0.024828,-0.033817 0.045701,-0.050539 0.076172,-0.0625 0.037688,-0.014795 0.087718,-0.023437 0.1484375,-0.023437 0,0 2.3e-6,-3.4e-6 2.3e-6,-3.4e-6 m -1.5664062,1.0058593 c -0.097876,-0.029355 -0.2049377,-0.028281 -0.3144532,0.00781 -0.1691652,0.055752 -0.26201,0.2041752 -0.2441406,0.3730468 0.00893,0.084436 0.065507,0.1795074 0.1523438,0.2265625 0.00174,9.428e-4 0.00411,-9.08e-4 0.00586,0 -0.03157,0.046422 -0.066871,0.097993 -0.056641,0.1542969 0.013731,0.075568 0.061485,0.1250427 0.109375,0.1542969 0.095781,0.058508 0.2242885,0.048199 0.3203125,-0.025391 0.024113,-0.01848 0.051789,-0.03993 0.080078,-0.070312 0,0 0.00195,-0.00195 0.00195,-0.00195 0.028338,-0.029789 0.049476,-0.061384 0.066406,-0.089844 0,0 0.00195,-0.00195 0.00195,-0.00195 0.04171,-0.070204 0.043422,-0.1104433 0.052734,-0.1542969 0.020331,-0.067932 0.046748,-0.1800329 0.033203,-0.3085938 10e-4,-0.071525 -0.027523,-0.1432706 -0.068359,-0.1835937 -0.044315,-0.043758 -0.091687,-0.0654 -0.140625,-0.080078 0,0 6.5e-6,-3.7e-6 6.5e-6,-3.7e-6"
   style="font-style:normal;font-variant:normal;font-weight:normal;font-stretch:normal;font-size:3.23561px;line-height:100%;font-family:'Liberation Sans';-inkscape-font-specification:'Liberation Sans';text-align:center;text-anchor:middle;display:inline;opacity:1;fill:#000000;fill-opacity:1;fill-rule:nonzero;stroke:none;stroke-width:0.182003;stroke-linecap:butt;stroke-linejoin:miter;stroke-miterlimit:4;stroke-dasharray:none;stroke-dashoffset:0;stroke-opacity:1;paint-order:fill markers stroke" />
    </symbol>
    </defs><g
     inkscape:label="Layer 1"
     inkscape:groupmode="layer"
     id="layer1"><image
       width="120"
       height="120"
       preserveAspectRatio="none"
       style="stroke-width:4.47524;image-rendering:optimizeQuality"
       xlink:href="staging/heightmap-contours.png"
       id="image1"
       x="0"
       y="6.458154e-15" /><use
       id="use8960"
       inkscape:label="Ink/Stitch Command: Origin for exported embroidery files"
       xlink:href="#inkstitch_origin"
       height="100%"
       width="100%"
       x="0"
       y="-10"
       transform="scale(0.264583)" /><path
       style="fill:none;stroke:#29282a;stroke-width:1;stroke-linejoin:round"
       d="m 53.247403,46.608608 c 2.480015,-1.681562 4.395442,-4.159714 7.058224,-5.533657 1.96681,-1.014836 4.236841,-1.356528 6.445413,-1.213537 2.208571,0.14299 4.365283,0.752335 6.428833,1.552333 3.391281,1.314733 6.597128,3.169458 9.260421,5.646589 1.454695,1.353013 2.754644,2.905915 3.601554,4.703003 0.846911,1.797087 1.218085,3.856916 0.802797,5.799676 -0.459485,2.149519 -1.836003,4.005074 -3.451106,5.496047 -1.615103,1.490973 -3.481929,2.677074 -5.244654,3.990223 -3.327939,2.479162 -6.407845,5.486098 -10.333267,6.832381 -1.475895,0.506181 -3.024212,0.758023 -4.551911,1.075233 -1.527699,0.317209 -3.061518,0.709321 -4.426189,1.465733 -1.89748,1.051739 -3.347102,2.735383 -4.819717,4.328491 -1.472614,1.593107 -3.079175,3.174864 -5.118288,3.91554 -1.146943,0.416609 -2.408485,0.544671 -3.601577,0.2886 -1.193092,-0.256072 -2.31063,-0.907669 -3.061393,-1.869644 -0.643206,-0.824158 -1.002357,-1.848313 -1.120958,-2.887007 -0.118602,-1.038694 -0.0056,-2.093677 0.22492,-3.113379 0.461124,-2.039404 1.383712,-3.94746 1.912411,-5.970399 0.74273,-2.841875 0.683943,-5.873987 -0.05697,-8.716338 -0.74091,-2.84235 -2.153138,-5.494606 -4.008573,-7.771723 -2.100741,-2.578173 -4.789705,-4.72887 -6.324198,-7.679364 -1.459524,-2.806345 -1.719976,-6.217451 -0.677573,-9.203951 0.938681,-2.689334 2.897675,-4.988228 5.346852,-6.44259 2.449177,-1.454362 5.364708,-2.073711 8.204966,-1.857905 3.684773,0.279974 7.123906,1.896259 10.728511,2.710362 1.790766,0.404446 3.62146,0.610276 5.414521,1.004424 1.793061,0.394148 3.57808,0.993612 5.049984,2.090844 1.765403,1.316021 2.970751,3.275846 3.710535,5.349798 0.739783,2.073952 1.048003,4.274092 1.296656,6.461951 0.305327,2.686518 0.528592,5.389517 1.094913,8.033357 0.566321,2.643839 1.494198,5.250952 3.083562,7.438309 1.205298,1.658787 2.754824,3.030444 4.154673,4.52869 1.399848,1.498247 2.687651,3.194468 3.18589,5.183456 0.357427,1.426862 0.282933,2.957018 -0.198467,4.346962 -0.481399,1.389943 -1.366365,2.635518 -2.511885,3.558271 -2.06465,1.663142 -4.802291,2.204146 -7.114708,3.500892 -1.364548,0.765204 -2.565592,1.785175 -3.834353,2.700474 -1.268761,0.9153 -2.648111,1.744138 -4.183823,2.04266 -1.904923,0.370292 -3.924901,-0.127209 -5.559719,-1.172778 -1.634818,-1.04557 -2.900716,-2.606975 -3.781666,-4.336071 -1.7619,-3.458192 -2.011156,-7.456719 -2.403523,-11.317993 -0.423857,-4.171166 -1.071652,-8.387463 -2.823299,-12.196664 -1.215044,-2.642283 -2.928725,-5.017416 -4.517276,-7.453498 -2.159808,-3.312118 -4.114725,-6.788947 -5.392506,-10.530895 -0.353873,-1.036309 -0.656091,-2.09609 -0.786321,-3.183381 -0.130231,-1.087291 -0.08405,-2.207026 0.246683,-3.250949 0.615582,-1.943002 2.223193,-3.507402 4.131947,-4.222144 1.908753,-0.714743 4.078817,-0.612523 5.978663,0.125571 1.491054,0.579277 2.814737,1.525123 4.015174,2.582364 1.200436,1.057241 2.291413,2.231502 3.438343,3.346561 2.850135,2.770935 6.063299,5.185554 9.599213,7.001777 3.357569,1.724616 7.067996,2.955674 9.82508,5.533668 2.093796,1.957791 3.49525,4.601485 4.1382,7.394967 0.64295,2.793483 0.548736,5.730067 -0.07266,8.528423 -0.825259,3.716433 -2.607138,7.254856 -5.307803,9.938014 -3.430121,3.407885 -8.101881,5.258075 -12.761304,6.550046 -2.212054,0.613361 -4.492283,1.124927 -6.783177,0.97933 -1.145447,-0.0728 -2.285705,-0.312493 -3.33854,-0.769536 -1.052834,-0.457042 -2.016848,-1.135699 -2.752508,-2.016694 -1.381435,-1.654348 -1.859418,-3.860349 -2.283918,-5.97341 -0.4245,-2.113061 -0.881052,-4.319133 -2.233358,-5.997375 -0.892573,-1.107703 -2.120867,-1.904815 -3.417434,-2.490142 -1.296567,-0.585326 -2.67118,-0.974033 -4.031286,-1.390932 -1.360106,-0.416899 -2.721061,-0.868308 -3.960747,-1.56607 -1.239686,-0.697762 -2.362508,-1.662125 -3.045832,-2.909827 -0.795345,-1.452245 -0.937287,-3.231171 -0.457009,-4.81576 0.480278,-1.584589 1.561266,-2.965385 2.941515,-3.879991 1.896068,-1.256408 4.243527,-1.620439 6.516191,-1.713361 2.272664,-0.09292 4.565794,0.05237 6.809768,-0.319409 2.032934,-0.336811 3.997526,-1.102205 5.703078,-2.258646 z"
       id="path1"
       inkscape:path-effect="#path-effect2"
       inkscape:original-d="m 53.247403,46.608608 c 2.592956,-1.488068 4.219723,-4.595213 7.058224,-5.533657 4.075918,-1.347549 8.756858,-0.876157 12.874246,0.338796 3.467577,1.023207 6.903357,2.905186 9.260421,5.646589 2.474985,2.878553 5.055718,6.762714 4.404351,10.502679 -0.736013,4.22598 -5.43301,6.701475 -8.69576,9.48627 -3.140804,2.680713 -6.579916,5.11098 -10.333267,6.832381 -2.827099,1.296594 -6.225313,1.093276 -8.9781,2.540966 -3.809435,2.003381 -5.747006,7.263798 -9.938005,8.244031 -2.222675,0.519862 -5.324509,0.268027 -6.66297,-1.581044 -2.348148,-3.243944 1.330515,-7.978507 1.016373,-11.970785 -0.444047,-5.643188 -1.525469,-11.429327 -4.06554,-16.488061 -1.488016,-2.963489 -5.090481,-4.601313 -6.324198,-7.679364 -1.1445,-2.85546 -2.0814,-6.466652 -0.677573,-9.203951 2.417348,-4.713548 11.29328,-10.725049 13.551818,-8.300495 19.612779,21.054437 6.124355,0.27927 10.728511,2.710362 2.674752,1.412326 7.720815,0.492215 10.464505,3.095268 2.74369,2.603054 3.185006,8.729273 5.007191,11.811749 2.718427,4.598592 1.828493,10.674325 4.178475,15.471666 1.785163,3.644301 6.700223,5.70494 7.340563,9.712146 0.439563,2.750753 -0.869546,5.81447 -2.710352,7.905233 -1.746626,1.983795 -4.789752,2.243623 -7.114708,3.500892 -2.731528,1.477131 -4.983417,5.401466 -8.018176,4.743134 -6.684645,-1.450104 -8.965623,-10.576814 -11.744908,-16.826842 -1.6956,-3.813049 -1.251547,-8.330917 -2.823299,-12.196664 -1.094214,-2.691234 -3.077586,-4.93014 -4.517276,-7.453498 -2.053136,-3.598551 -4.308454,-6.739057 -5.392506,-10.530895 -0.591622,-2.069398 -1.666605,-4.600654 -0.539638,-6.43433 1.904018,-3.098007 6.511652,-4.616603 10.11061,-4.096573 3.142044,0.454007 4.928282,4.004931 7.453517,5.928925 3.150301,2.400236 6.268215,4.859352 9.599213,7.001777 3.161316,2.033289 7.538625,2.550329 9.82508,5.533668 3.33232,4.347972 4.722879,10.484904 4.065542,15.92339 -0.450644,3.728407 -2.630631,7.304224 -5.307803,9.938014 -3.408447,3.353214 -8.046754,5.753445 -12.761304,6.550046 -4.272903,0.721977 -9.490242,0.900056 -12.874225,-1.8069 -3.330449,-2.664133 -1.757605,-8.71906 -4.517276,-11.970785 -3.601371,-4.243502 -12.369388,-3.196917 -14.455299,-8.356971 -1.129798,-2.794854 0.221985,-6.703605 2.484506,-8.695751 3.3724,-2.969392 8.988538,-0.859248 13.325959,-2.03277 1.97372,-0.534005 3.929677,-1.240912 5.703078,-2.258646 z"
       sodipodi:nodetypes="aaaaaaaaaaaaaassssaaaaaaasaaaaaaaaaaaaaaa"
       inkstitch:ties="3"
       inkstitch:running_stitch_length_mm="1.0"
       inkstitch:running_stitch_tolerance_mm="0.1" /></g></svg>
